<?xml version="1.0"?>
<svg xmlns="http://www.w3.org/2000/svg" viewBox="0 0 512 512" width="512" height="512"><g id="Outline"><path d="M486.878,182.466,439.756,58.884a29.1,29.1,0,0,0-15.572-16.339,29.615,29.615,0,0,0-22.963-.47A29.114,29.114,0,0,0,384.88,57.988a28.636,28.636,0,0,0,.038,22.437l21.962,51.722A28.014,28.014,0,0,0,376,160v62.056a40.647,40.647,0,0,1-4.269,18.082A187.852,187.852,0,0,0,352,323.722V344a8,8,0,0,0-8,8V496h16V360h96V496h16V352a8,8,0,0,0-8-8h-3.05l24.8-59.727A138.437,138.437,0,0,0,486.878,182.466Zm-15.924,95.725L443.624,344H368V323.722a171.772,171.772,0,0,1,18.042-76.429A56.727,56.727,0,0,0,392,222.056V160a11.993,11.993,0,0,1,23.976-.473c.009.322.024.643.024.966V256h16V160.493c0-.165-.011-.328-.012-.493H432c0-.558-.021-1.111-.054-1.662a49.412,49.412,0,0,0-3.9-17.282l-28.4-66.878a12.755,12.755,0,0,1-.015-9.994,13.235,13.235,0,0,1,7.446-7.22,13.73,13.73,0,0,1,10.642.217,13.216,13.216,0,0,1,7.086,7.4l47.123,123.582A122.462,122.462,0,0,1,470.954,278.191Z"/><rect x="424" y="376" width="16" height="16"/><path d="M160,344V323.722a187.852,187.852,0,0,0-19.731-83.584A40.647,40.647,0,0,1,136,222.056V160a28.014,28.014,0,0,0-30.88-27.853l21.965-51.728a28.634,28.634,0,0,0,.035-22.431,29.114,29.114,0,0,0-16.341-15.913,29.615,29.615,0,0,0-22.963.47A29.1,29.1,0,0,0,72.245,58.884L25.122,182.466a138.476,138.476,0,0,0,1.147,101.862L51.05,344H48a8,8,0,0,0-8,8V496H56V360h96V496h16V352A8,8,0,0,0,160,344ZM41.067,278.245a122.5,122.5,0,0,1-1-90.079L87.2,64.584a13.211,13.211,0,0,1,7.085-7.4,13.73,13.73,0,0,1,10.642-.217,13.235,13.235,0,0,1,7.446,7.22,12.748,12.748,0,0,1-.013,9.988l-28.4,66.884a49.412,49.412,0,0,0-3.9,17.282c-.033.551-.054,1.1-.054,1.662h.012c0,.165-.012.328-.012.493V256H96V160.493c0-.323.015-.644.024-.966A11.993,11.993,0,0,1,120,160v62.056a56.727,56.727,0,0,0,5.958,25.237A171.772,171.772,0,0,1,144,323.722V344H68.376Z"/><rect x="72" y="376" width="16" height="16"/><path d="M256,384a174.652,174.652,0,0,1-71.887-15.3l-6.543,14.6a192.53,192.53,0,0,0,156.86,0l-6.543-14.6A174.652,174.652,0,0,1,256,384Z"/><path d="M256,32A174.342,174.342,0,0,1,363.126,68.346l9.748-12.688a192.046,192.046,0,0,0-233.748,0l9.748,12.688A174.342,174.342,0,0,1,256,32Z"/><path d="M304.4,136a47.285,47.285,0,0,0-33.657,13.941L256,164.687l-14.745-14.746a47.6,47.6,0,0,0-67.315,67.314l76.4,76.4a8,8,0,0,0,11.314,0l76.4-76.4A47.6,47.6,0,0,0,304.4,136Zm22.343,69.941L256,276.687l-70.745-70.746a31.6,31.6,0,1,1,44.685-44.686l20.4,20.4a8,8,0,0,0,11.314,0l20.4-20.4a31.6,31.6,0,1,1,44.685,44.686Z"/><path d="M202.949,74.085A143.5,143.5,0,0,1,218.1,69.037L213.9,53.6a159.481,159.481,0,0,0-16.848,5.613Z"/><path d="M289.676,364.448,286.324,348.8A144.483,144.483,0,0,1,180.217,330.47l-8.434,13.6a160.486,160.486,0,0,0,117.893,20.381Z"/><path d="M256,48a161.785,161.785,0,0,0-25.253,1.982l2.506,15.8A145.738,145.738,0,0,1,256,64a143.19,143.19,0,0,1,113.687,55.609l12.625-9.83A159.09,159.09,0,0,0,256,48Z"/></g></svg>
