<svg height="503pt" viewBox="-12 0 503 503.75764" width="503pt" xmlns="http://www.w3.org/2000/svg"><path d="m42.347656 352.523438c4.632813 0 8.390625-3.757813 8.390625-8.390626v-16.789062c0-4.636719-3.757812-8.394531-8.390625-8.394531-4.636718 0-8.394531 3.757812-8.394531 8.394531v16.789062c0 4.632813 3.757813 8.390626 8.394531 8.390626zm0 0"/><path d="m42.347656 436.460938c4.632813 0 8.390625-3.761719 8.390625-8.394532v-50.363281c0-4.632813-3.757812-8.390625-8.390625-8.390625-4.636718 0-8.394531 3.757812-8.394531 8.390625v50.363281c0 4.632813 3.757813 8.394532 8.394531 8.394532zm0 0"/><path d="m25.171875 470.03125h45.828125c5.128906 0 5.601562.738281 6.84375 2.703125.75 1.253906 1.613281 2.433594 2.582031 3.527344 22.90625 25.019531 58.234375 27.496093 71.109375 27.496093 2.890625 0 4.644532-.125 4.886719-.152343h138.566406c14.597657-.359375 27.492188-9.605469 32.515625-23.316407 2.691406-9.046874 1.621094-18.792968-2.960937-27.042968h.839843c14.515626-.03125 27.488282-9.0625 32.558594-22.664063 3.078125-10.574219 1.179688-21.980469-5.164062-30.988281 8.332031-3.375 14.769531-10.226562 17.625-18.75 3.359375-11.671875.792968-24.246094-6.871094-33.664062 6.242188-3.503907 10.925781-9.25 13.09375-16.074219.347656-1.226563.628906-2.46875.839844-3.726563h34.191406c37.070312-.042968 67.109375-30.082031 67.148438-67.148437v-193.082031c-.039063-37.066407-30.078126-67.1054692-67.148438-67.148438h-302.164062c-37.066407.0429688-67.105469 30.082031-67.144532 67.148438v193.046874c.035156 8.640626 1.746094 17.191407 5.035156 25.183594h-22.210937c-14.09375 1.261719-24.871094 13.117188-24.792969 27.269532v132.203124c.074219 13.726563 11.070313 24.894532 24.792969 25.179688zm33.960937-402.882812c.027344-27.804688 22.558594-50.332032 50.359376-50.363282h302.164062c27.804688.03125 50.335938 22.558594 50.363281 50.363282v193.046874c-.027343 27.804688-22.558593 50.335938-50.363281 50.363282h-35.125c-1.492188-5.390625-4.3125-10.316406-8.207031-14.328125-6.09375-6.59375-14.558594-10.496094-23.527344-10.851563h-68.449219l-43.183594-.050781c.511719-1.007813.90625-1.773437 1.074219-2.066406 5.191407-7.867188 11.824219-14.675781 19.546875-20.078125l7.136719-5.730469c2.472656-2 5.035156-3.863281 7.644531-5.734375 18.273438-13.125 56-47.371094 56-69.378906.257813-12.53125-6.832031-24.058594-18.128906-29.488282-10.117188-3.796874-21.53125-.84375-28.539062 7.386719-23.003907 22.980469-51.980469 36.46875-82.648438 50.730469-31.726562 14.773438-64.554688 30.03125-90.105469 56.757812-3.515625 3.886719-7.355469 7.472657-11.480469 10.710938-8.203124 5.265625-17.894531 7.714844-27.613281 6.980469-4.523437-7.636719-6.910156-16.347657-6.917969-25.222657zm-41.964843 245.5c0-4.902344 4.261719-10.484376 8.003906-10.484376l32.835937.050782c15.328126.117187 31.265626.359375 45.621094-10.28125 4.894532-3.792969 9.453125-8.007813 13.621094-12.589844 23.382812-24.46875 53.339844-38.402344 85.066406-53.164062 30.644532-14.269532 62.320313-28.992188 87.433594-54.082032 3.761719-3.757812 7.226562-5.035156 10.25-3.742187 4.976562 2.863281 7.964844 8.238281 7.78125 13.976562 0 9.230469-22.613281 36.769531-49.011719 55.746094-2.851562 2.042969-5.671875 4.097656-8.390625 6.3125l-7.027344 5.648437c-9.167968 6.503907-17.03125 14.671876-23.179687 24.082032-.363281.5625-1.429687 2.519531-2.714844 5.09375-2.511719 4.824218-2.328125 10.609375.488281 15.261718 3.105469 4.890626 8.535157 7.804688 14.328126 7.6875h112.523437c4.5.421876 8.671875 2.546876 11.65625 5.941407 4.40625 4.945312 5.945313 11.8125 4.070313 18.164062-3.128907 6.121094-9.566407 9.828125-16.433594 9.46875-.613282.050781-1.21875.171875-1.804688.359375-1.226562-.1875-2.464844-.308594-3.707031-.359375h-38.039063c-4.636718 0-8.394531 3.757813-8.394531 8.394531 0 4.632813 3.757813 8.390626 8.394531 8.390626h38.039063c4.375-.003907 8.574219 1.738281 11.65625 4.84375 4.433594 5.125 5.96875 12.144531 4.070313 18.652343-3.042969 6.273438-9.457032 10.210938-16.433594 10.078125h-49.789063c-4.636719 0-8.394531 3.757813-8.394531 8.394532 0 4.636718 3.757812 8.394531 8.394531 8.394531h38.054688c4.375-.007813 8.570312 1.734375 11.652343 4.839843 4.429688 4.875 5.976563 11.714844 4.078126 18.023438-2.953126 6.445312-9.355469 10.613281-16.445313 10.710938h-49.074219c-4.636718 0-8.394531 3.757812-8.394531 8.390624 0 4.636719 3.757813 8.394532 8.394531 8.394532h19.378906c4.375-.007813 8.570313 1.738281 11.652344 4.84375 4.40625 4.632812 5.96875 11.289062 4.078125 17.398437-2.875 6.613281-9.265625 11.011719-16.46875 11.332031h-139.195312c-.410157.042969-40.421875 2.726563-62.953125-21.925781-.28125-.355469-.535156-.734375-.753906-1.132812-4.324219-7.371094-12.59375-11.496094-21.085938-10.515625h-45.828125c-4.484375-.207032-8.011719-3.90625-8.003906-8.394532zm0 0"/><path d="m80.117188 133.152344 25.441406 14.824218-10.074219 34.328126c-1.035156 3.558593.386719 7.371093 3.492187 9.386718 3.109376 2.015625 7.171876 1.757813 9.996094-.640625l25.703125-21.832031 25.691407 21.824219c2.824218 2.394531 6.886718 2.65625 9.996093.640625 3.105469-2.015625 4.527344-5.828125 3.492188-9.386719l-10.074219-34.328125 25.449219-14.816406c3.273437-1.90625 4.863281-5.765625 3.882812-9.425782-.980469-3.65625-4.292969-6.207031-8.078125-6.21875h-32.128906l-10.15625-35.855468c-1.027344-3.609375-4.324219-6.101563-8.074219-6.101563-3.753906 0-7.050781 2.492188-8.074219 6.101563l-10.15625 35.855468h-32.132812c-3.785156.011719-7.09375 2.5625-8.078125 6.21875-.980469 3.660157.609375 7.519532 3.882813 9.425782zm42.671874 1.144531c3.753907-.003906 7.054688-2.5 8.074219-6.113281l3.8125-13.445313 3.808594 13.429688c1.023437 3.613281 4.320313 6.109375 8.074219 6.109375h7.386718l-4.253906 2.519531c-3.332031 1.9375-4.914062 5.898437-3.835937 9.601563l4.019531 13.730468-9.769531-8.292968c-3.132813-2.65625-7.730469-2.65625-10.863281 0l-9.769532 8.292968 4.023438-13.730468c1.078125-3.703126-.503906-7.664063-3.835938-9.601563l-4.289062-2.5zm0 0"/><path d="m206.019531 91.1875 25.441407 14.820312-10.074219 34.332032c-1.035157 3.554687.386719 7.371094 3.492187 9.386718 3.109375 2.015626 7.171875 1.753907 9.996094-.640624l25.699219-21.832032 25.695312 21.820313c2.824219 2.398437 6.886719 2.660156 9.996094.644531 3.105469-2.015625 4.527344-5.832031 3.492187-9.390625l-10.074218-34.328125 25.449218-14.8125c3.273438-1.90625 4.863282-5.769531 3.882813-9.425781-.984375-3.660157-4.292969-6.207031-8.078125-6.222657h-32.132812l-10.152344-35.855468c-1.027344-3.609375-4.324219-6.101563-8.078125-6.101563-3.75 0-7.046875 2.492188-8.074219 6.101563l-10.15625 35.855468h-32.128906c-3.785156.015626-7.097656 2.5625-8.078125 6.222657-.980469 3.65625.609375 7.519531 3.882812 9.425781zm42.671875 1.140625c3.753906 0 7.050782-2.496094 8.074219-6.109375l3.808594-13.449219 3.8125 13.429688c1.019531 3.617187 4.320312 6.109375 8.074219 6.113281h7.386718l-4.253906 2.476562c-3.335938 1.9375-4.917969 5.898438-3.835938 9.601563l4.019532 13.730469-9.769532-8.292969c-3.132812-2.65625-7.730468-2.65625-10.863281 0l-9.769531 8.292969 4.019531-13.730469c1.078125-3.703125-.503906-7.664063-3.835937-9.601563l-4.289063-2.460937zm0 0"/><path d="m331.921875 133.152344 25.4375 14.824218-10.070313 34.328126c-1.035156 3.558593.382813 7.371093 3.492188 9.386718s7.171875 1.757813 9.996094-.640625l25.699218-21.832031 25.695313 21.824219c2.824219 2.394531 6.886719 2.65625 9.992187.640625 3.109376-2.015625 4.527344-5.828125 3.492188-9.386719l-10.070312-34.328125 25.449218-14.816406c3.273438-1.90625 4.863282-5.765625 3.878906-9.425782-.980468-3.65625-4.289062-6.207031-8.074218-6.21875h-32.132813l-10.15625-35.855468c-1.023437-3.609375-4.320312-6.101563-8.074219-6.101563-3.75 0-7.046874 2.492188-8.074218 6.101563l-10.15625 35.855468h-32.128906c-3.789063.011719-7.097657 2.5625-8.078126 6.21875-.980468 3.660157.609376 7.519532 3.882813 9.425782zm42.671875 1.144531c3.753906-.003906 7.050781-2.5 8.074219-6.113281l3.808593-13.445313 3.8125 13.429688c1.019532 3.613281 4.316407 6.109375 8.074219 6.109375h7.386719l-4.257812 2.519531c-3.332032 1.9375-4.914063 5.898437-3.835938 9.601563l4.023438 13.730468-9.773438-8.292968c-3.128906-2.65625-7.726562-2.65625-10.859375 0l-9.769531 8.292968 4.019531-13.730468c1.078125-3.703126-.503906-7.664063-3.835937-9.601563l-4.289063-2.5zm0 0"/></svg>